<svg width="11" height="13" viewBox="0 0 11 13" fill="none" xmlns="http://www.w3.org/2000/svg">
<path d="M5.5 0C6.39042 0 7.11774 0.69035 7.15857 1.55627C8.70998 2.20226 9.75472 3.70928 9.75472 5.41522V7.56502C10.4502 7.6175 11 8.19072 11 8.8894V9.70732C11 10.1027 10.674 10.4221 10.2731 10.4221H0.726944C0.32511 10.4221 0 10.1026 0 9.70732V8.8894C0 8.19157 0.549109 7.61752 1.24528 7.56502V5.41522C1.24528 3.71008 2.29027 2.20278 3.84142 1.55651C3.88215 0.690287 4.61018 0 5.5 0ZM10.0665 9.5V8.8894C10.0665 8.72093 9.92598 8.58288 9.75472 8.58288C9.23912 8.58288 8.84821 8.17136 8.84821 7.66365V5.41522C8.84821 4.02821 7.93612 2.81501 6.61579 2.39841L6.25527 2.15155V1.50007C6.25527 1.16306 5.84373 0.888666 5.5 0.888666C5.1567 0.888666 4.67179 1.16307 4.67179 1.5V2.15155L4.31138 2.26536C2.99129 2.6822 2.13823 4.02905 2.13823 5.41522V7.66365C2.13823 8.17119 1.76021 8.58288 1.24528 8.58288C1.07385 8.58288 0.933529 8.72118 0.933529 8.8894V9.5H10.0665ZM3.5283 10.4221H4.3911C4.3911 10.9299 4.74473 11.5 5.5 11.5C6.25527 11.5 6.591 10.9299 6.591 10.4221H7.4717C7.4717 11.4942 6.58894 12.3634 5.5 12.3634C4.41106 12.3634 3.5283 11.4942 3.5283 10.4221Z" fill="black"/>
</svg>
