<svg width="22" height="20" viewBox="0 0 22 20" fill="none" xmlns="http://www.w3.org/2000/svg">
<path d="M5.71185 0C4.24479 0 2.77863 0.594191 1.66681 1.77756C-0.556914 4.14426 -0.554291 7.93957 1.66681 10.3081L10.5853 19.8211C10.638 19.8776 10.7016 19.9226 10.772 19.9534C10.8425 19.9841 10.9184 20 10.9951 20C11.0718 20 11.1477 19.9841 11.2182 19.9534C11.2887 19.9226 11.3522 19.8776 11.4049 19.8211C14.3811 16.6536 17.3561 13.4846 20.3323 10.317C22.5559 7.95027 22.5559 4.15323 20.3323 1.78649C18.1085 -0.580239 14.4658 -0.580296 12.2421 1.78649L10.9995 3.09957L9.75693 1.77756C8.64506 0.594194 7.17892 0 5.71185 0ZM5.71185 1.12549C6.87472 1.12549 8.0428 1.60217 8.94616 2.56362L10.5941 4.3233C10.6468 4.37979 10.7104 4.42481 10.7808 4.45556C10.8513 4.48631 10.9272 4.50218 11.0039 4.50218C11.0806 4.50218 11.1566 4.48631 11.227 4.45556C11.2975 4.42481 11.361 4.37979 11.4137 4.3233L13.0529 2.57255C14.8596 0.649612 17.706 0.649652 19.5126 2.57255C21.3193 4.49544 21.3193 7.60803 19.5126 9.53097C16.674 12.5522 13.8381 15.5762 10.9995 18.5974L2.48638 9.52202C0.680963 7.59677 0.679722 4.48647 2.48638 2.56362C3.38971 1.60217 4.54899 1.12549 5.71185 1.12549Z" fill="black"/>
</svg>
