<svg width="20" height="17" viewBox="0 0 20 17" fill="none" xmlns="http://www.w3.org/2000/svg">
<path d="M16.0074 8.88835L16.0083 8.88739C16.1263 8.76985 16.2441 8.65259 16.3617 8.53551C16.9457 7.95405 17.5252 7.37712 18.0983 6.79344L18.4551 7.14374L18.0975 6.7943C18.1714 6.71857 18.2477 6.64708 18.315 6.58395L18.3194 6.57988C18.3905 6.5132 18.4522 6.45525 18.5097 6.39626C18.6236 6.27948 18.6996 6.17994 18.7475 6.07397L19.2031 6.27982V6.276V5.97277C19.0817 5.7892 18.9482 5.61399 18.8034 5.44831C17.6195 4.25828 16.433 3.06887 15.2439 1.88011M16.0074 8.88835L12.4211 0.754908C12.4098 0.582134 12.4574 0.410635 12.5563 0.268594C12.6147 0.189781 12.6899 0.124902 12.7763 0.0786098C12.8627 0.0323174 12.9583 0.00575829 13.0562 0.000836653C13.154 -0.00408499 13.2518 0.0127528 13.3424 0.0501427C13.433 0.0875327 13.5143 0.144549 13.5803 0.217102M16.0074 8.88835L13.9136 10.9862L13.9131 10.9867M16.0074 8.88835L13.9131 10.9867M15.2439 1.88011C15.1055 1.74136 14.9671 1.60251 14.8288 1.46365C14.4137 1.04706 13.9986 0.630471 13.5803 0.217102M15.2439 1.88011L14.8904 2.2337L14.89 2.23332L15.2439 1.88011ZM13.5803 0.217102L13.2289 0.57274L13.2195 0.563441L13.2105 0.553657L13.5803 0.217102ZM13.9131 10.9867L13.2602 11.6427L13.2445 11.6585M13.9131 10.9867L13.2445 11.6585M13.2445 11.6585L13.2303 11.6756M13.2445 11.6585L13.2303 11.6756M13.2303 11.6756C13.2065 11.7042 13.1739 11.7239 13.1379 11.7317C13.1019 11.7395 13.0643 11.735 13.031 11.7189L13.031 11.7188M13.2303 11.6756L13.031 11.7188M13.031 11.7188L13.0225 11.7149M13.031 11.7188L13.0225 11.7149M13.0225 11.7149C12.9877 11.6989 12.9587 11.6722 12.9396 11.6386L12.5047 11.8854M13.0225 11.7149L12.5047 11.8854M12.5047 11.8854L12.9396 11.6386C12.9205 11.6049 12.9124 11.566 12.9164 11.5274L12.9192 11.5012M12.5047 11.8854L12.9192 11.5012M12.9192 11.5012V11.4748V11.47V11.4652V11.4604V11.4557V11.4509V11.4461V11.4413V11.4365V11.4317V11.427V11.4222V11.4174V11.4126V11.4078V11.4031V11.3983V11.3935V11.3887V11.3839V11.3791V11.3744V11.3696V11.3648V11.36V11.3552V11.3504V11.3457V11.3409V11.3361V11.3313V11.3265V11.3217V11.317V11.3122V11.3074V11.3026V11.2978V11.2931V11.2883V11.2835V11.2787V11.2739V11.2691V11.2644V11.2596V11.2548V11.25V11.2452V11.2404V11.2357V11.2309V11.2261V11.2213V11.2165V11.2117V11.207V11.2022V11.1974V11.1926V11.1878V11.183V11.1783V11.1735V11.1687V11.1639V11.1591V11.1544V11.1496V11.1448V11.14V11.1352V11.1304V11.1257V11.1209V11.1161V11.1113V11.1065V11.1017V11.097V11.0922V11.0874V11.0826V11.0778V11.073V11.0683V11.0635V11.0587V11.0539V11.0491V11.0444V11.0396V11.0348V11.03V11.0252V11.0204V11.0157V11.0109V11.0061V11.0013V10.9965V10.9917V10.987V10.9822V10.9774V10.9726V10.9678V10.963V10.9583V10.9535V10.9487V10.9439V10.9391V10.9344V10.9296V10.9248V10.92V10.9152V10.9104V10.9057V10.9009V10.8961V10.8913V10.8865V10.8817V10.877V10.8722V10.8674V10.8626V10.8578V10.853V10.8483V10.8435V10.8387V10.8339V10.8291V10.8243V10.8196V10.8148V10.81V10.8052V10.8004V10.7957V10.7909V10.7861V10.7813V10.7765V10.7717V10.767V10.7622V10.7574V10.7526V10.7478V10.743V10.7383V10.7335V10.7287V10.7239V10.7191V10.7143V10.7096V10.7048V10.7V10.6952V10.6904V10.6857V10.6809V10.6761V10.6713V10.6665V10.6617V10.657V10.6522V10.6474V10.6426V10.6378V10.633V10.6283V10.6235V10.6187V10.6139V10.6091V10.6043V10.5996V10.5948V10.59V10.5852V10.5804V10.5756V10.5709V10.5661V10.5613V10.5565V10.5517V10.547V10.5422V10.5374V10.5326V10.5278V10.523V10.5183V10.5135V10.5087V10.5039V10.4991V10.4943V10.4896V10.4848V10.48V10.4752V10.4704V10.4656V10.4609V10.4561V10.4513V10.4465V10.4417V10.437V10.4322V10.4274V10.4226V10.4178V10.413V10.4083V10.4035V10.3987V10.3939V10.3891V10.3843V10.3796V10.3748V10.37V10.3652V10.3604V10.3556V10.3509V10.3461V10.3413V10.3365V10.3317V10.3269V10.3222V10.3174V10.3126V10.3078V10.303V10.2983V10.2935V10.2887V10.2839V10.2791V10.2743V10.2696V10.2648V10.26V10.2552V10.2504V10.2456V10.2409V10.2361V10.2313V10.2265V10.2217V10.2169V10.2122V10.2074V10.2026V10.1978V10.193V10.1883V10.1835V10.1787V10.1739V10.1691V10.1643V10.1596V10.1548V10.15V10.1452V10.1404V10.1356V10.1309V10.1261V10.1213V10.1165V10.1117V10.1069V10.1022V10.0974V10.0926V10.0878V10.083V10.0782V10.0735V10.0687V10.0639V10.0591V10.0543V10.0496V10.0448V10.04V10.0352V10.0304V10.0256V10.0209V10.0161V10.0113V10.0065V10.0017V9.99694V9.99216V9.98738V9.9826V9.97781V9.97303V9.96825V9.96347V9.95868V9.9539V9.94912V9.94433V9.93955V9.93477V9.92999V9.9252V9.92042V9.91564V9.91086V9.90607V9.90129V9.89651V9.89172V9.88694V9.88216V9.87738V9.87259V9.86781V9.86303V9.85825V9.85346V9.84868V9.8439V9.83912V9.83433V9.82955V9.82477V9.81998V9.8152V9.81042V9.80564V9.80085V9.79607V9.79129V9.78651V9.78172V9.77694V9.77216V9.76737V9.76259V9.75781V9.75303V9.74824V9.74346V9.73868V9.7339V9.72911V9.72433V9.71955V9.71477V9.70998V9.7052V9.70042V9.69563V9.69085V9.68607V9.68129V9.6765V9.67172V9.66694V9.66216V9.65737V9.65259V9.64781V9.64303V9.63824V9.63346V9.62868V9.62389V9.61911V9.61433V9.60955V9.60476V9.59998V9.5952V9.59042V9.58563V9.58085V9.57607V9.57129V9.5665V9.56172V9.55694V9.55215V9.54737V9.54259V9.53781V9.53302V9.52824V9.52346V9.51868V9.51389V9.50911V9.50433V9.49955V9.49476V9.48998V9.4852V9.48041V9.47563V9.47085V9.46607V9.46128V9.4565V9.45172V9.44694V9.44215V9.43737V9.43259V9.4278V9.42302V9.41824V9.41346V9.40867V9.40389V9.39911V9.39433V9.38954V9.38476V9.37998V9.3752V9.37041V9.36563V9.36085V9.35606V9.35128V9.3465V9.34172V9.33693V9.33215V9.32737V9.32259V9.3178V9.31302V9.30824V9.30346V9.29867V9.29389V9.28911V9.28432V9.27954V9.27476V9.26998V9.26519V9.26041V9.25563V9.25084V9.24606V9.24128V9.2365V9.23171V9.22693V9.22215V9.21737V9.21258V9.2078V9.20302V9.19824V9.19345V9.18867V9.18389V9.1791V9.17432V9.16954V9.16476V9.15997V9.15519V9.15041V9.14563V9.14084V9.13606V9.13128V9.1265V9.12171V9.11693V9.11215V9.10736V9.10258V9.0978V9.09302V9.08823V9.08345V9.07867V9.07389V9.0691V9.06432V9.05954V9.05476V9.04997V9.04519V9.04041V9.03562V9.03084V9.02606V9.02076C12.9192 8.96188 12.9192 8.87537 12.9054 8.77024L12.8483 8.33535H12.4097H12.4094H12.4091H12.4089H12.4086H12.4083H12.408H12.4078H12.4075H12.4072H12.4069H12.4066H12.4064H12.4061H12.4058H12.4055H12.4053H12.405H12.4047H12.4045H12.4042H12.4039H12.4036H12.4034H12.4031H12.4028H12.4025H12.4023H12.402H12.4017H12.4015H12.4012H12.4009H12.4007H12.4004H12.4001H12.3999H12.3996H12.3993H12.399H12.3988H12.3985H12.3982H12.398H12.3977H12.3974H12.3972H12.3969H12.3967H12.3964H12.3961H12.3959H12.3956H12.3953H12.3951H12.3948H12.3945H12.3943H12.394H12.3938H12.3935H12.3932H12.393H12.3927H12.3924H12.3922H12.3919H12.3917H12.3914H12.3911H12.3909H12.3906H12.3904H12.3901H12.3899H12.3896H12.3893H12.3891H12.3888H12.3886H12.3883H12.3881H12.3878H12.3875H12.3873H12.387H12.3868H12.3865H12.3863H12.386H12.3858H12.3855H12.3852H12.385H12.3847H12.3845H12.3842H12.384H12.3837H12.3835H12.3832H12.383H12.3827H12.3825H12.3822H12.382H12.3817H12.3815H12.3812H12.381H12.3807H12.3805H12.3802H12.38H12.3797H12.3795H12.3792H12.379H12.3787H12.3785H12.3782H12.378H12.3777H12.3775H12.3773H12.377H12.3768H12.3765H12.3763H12.376H12.3758H12.3755H12.3753H12.375H12.3748H12.3746H12.3743H12.3741H12.3738H12.3736H12.3733H12.3731H12.3729H12.3726H12.3724H12.3721H12.3719H12.3716H12.3714H12.3712H12.3709H12.3707H12.3704H12.3702H12.37H12.3697H12.3695H12.3692H12.369H12.3688H12.3685H12.3683H12.368H12.3678H12.3676H12.3673H12.3671H12.3669H12.3666H12.3664H12.3661H12.3659H12.3657H12.3654H12.3652H12.365H12.3647H12.3645H12.3643H12.364H12.3638H12.3636H12.3633H12.3631H12.3628H12.3626H12.3624H12.3621H12.3619H12.3617H12.3614H12.3612H12.361H12.3607H12.3605H12.3603H12.3601H12.3598H12.3596H12.3594H12.3591H12.3589H12.3587H12.3584H12.3582H12.358H12.3577H12.3575H12.3573H12.357H12.3568H12.3566H12.3564H12.3561H12.3559H12.3557H12.3554H12.3552H12.355H12.3548H12.3545H12.3543H12.3541H12.3538H12.3536H12.3534H12.3532H12.3529H12.3527H12.3525H12.3523H12.352H12.3518H12.3516H12.3513H12.3511H12.3509H12.3507H12.3504H12.3502H12.35H12.3498H12.3495H12.3493H12.3491H12.3489H12.3486H12.3484H12.3482H12.348H12.3477H12.3475H12.3473H12.3471H12.3469H12.3466H12.3464H12.3462H12.346H12.3457H12.3455H12.3453H12.3451H12.3448H12.3446H12.3444H12.3442H12.344H12.3437H12.3435H12.3433H12.3431H12.3429H12.3426H12.3424H12.3422H12.342H12.3418H12.3415H12.3413H12.3411H12.3409H12.3406H12.3404H12.3402H12.34H12.3398H12.3396H12.3393H12.3391H12.3389H12.3387H12.3385H12.3382H12.338H12.3378H12.3376H12.3374H12.3371H12.3369H12.3367H12.3365H12.3363H12.3361H12.3358H12.3356H12.3354H12.3352H12.335H12.3348H12.3345H12.3343H12.3341H12.3339H12.3337H12.3335H12.3332H12.333H12.3328H12.3326H12.3324H12.3322H12.3319H12.3317H12.3315H12.3313H12.3311H12.3309H12.3306H12.3304H12.3302H12.33H12.3298H12.3296H12.3294H12.3291H12.3289H12.3287H12.3285H12.3283H12.3281H12.3278H12.3276H12.3274H12.3272H12.327H12.3268H12.3266H12.3264H12.3261H12.3259H12.3257H12.3255H12.3253H12.3251H12.3249H12.3246H12.3244H12.3242H12.324H12.3238H12.3236H12.3234H12.3231H12.3229H12.3227H12.3225H12.3223H12.3221H12.3219H12.3217H12.3214H12.3212H12.321H12.3208H12.3206H12.3204H12.3202H12.32H12.3197H12.3195H12.3193H12.3191H12.3189H12.3187H12.3185H12.3183H12.3181H12.3178H12.3176H12.3174H12.3172H12.317H12.3168H12.3166H12.3164H12.3161H12.3159H12.3157H12.3155H12.3153H12.3151H12.3149H12.3147H12.3145H12.3142H12.314H12.3138H12.3136H12.3134H12.3132H12.313H12.3128H12.3126H12.3123H12.3121H12.3119H12.3117H12.3115H12.3113H12.3111H12.3109H12.3107H12.3104H12.3102H12.31H12.3098H12.3096H12.3094H12.3092H12.309H12.3088H12.3086H12.3083H12.3081H12.3079H12.3077H12.3075H12.3073H12.3071H12.3069H12.3067H12.3064H12.3062H12.306H12.3058H12.3056H12.3054H12.3052H12.305H12.3048H12.3046H12.3043H12.3041H12.3039H12.3037H12.3035H12.3033H12.3031H12.3029H12.3027H12.3024H12.3022H12.302H12.3018H12.3016H12.3014H12.3012H12.301H12.3008H12.3006H12.3003H12.3001H12.2999H12.2997H12.2995H12.2993H12.2991H12.2989H12.2987H12.2984H12.2982H12.298H12.2978H12.2976H12.2974H12.2972H12.297H12.2968H12.2965H12.2963H12.2961H12.2959H12.2957H12.2955H12.2953H12.2951H12.2949H12.2946H12.2944H12.2942H12.294H12.2938H12.2936H12.2934H12.2932H12.293H12.2927H12.2925H12.2923H12.2921H12.2919H12.2917V8.3353L12.2846 8.3354C11.8862 8.34104 11.4836 8.3433 11.0787 8.34557C10.1382 8.35083 9.18467 8.35617 8.23886 8.40425M12.9192 11.5012L8.23886 8.40425M8.23886 8.40425C7.1661 8.42521 6.10629 8.64316 5.11203 9.04726L5.11197 9.04712L5.10061 9.05207C3.80229 9.61764 2.84946 10.5605 2.38527 11.9664L2.38486 11.9677C1.97673 13.2149 1.92903 14.4771 1.99919 15.7117C1.9992 15.7118 1.99921 15.712 1.99922 15.7122L2.49841 15.6838C2.50727 15.8459 2.52066 16.0074 2.53405 16.1689C2.54366 16.2849 2.55327 16.4009 2.56122 16.5172C2.56652 16.5807 2.56652 16.6445 2.56122 16.7079M8.23886 8.40425L2.04269 16.2953C2.04082 16.2724 2.03892 16.2493 2.037 16.226C2.02613 16.0939 2.01482 15.9563 2.00611 15.8252M2.56122 16.7079L2.28454 16.6847L2.28232 16.6845L2.25743 16.6824L2.25686 16.6824L2.2412 16.681L2.20761 16.6782L2.06298 16.6661C2.06624 16.6272 2.08115 16.5901 2.10589 16.5597C2.1072 16.558 2.10854 16.5564 2.10991 16.5549C2.11206 16.5524 2.11427 16.55 2.11654 16.5476C2.12335 16.5405 2.13067 16.534 2.13844 16.528C2.14852 16.5202 2.15936 16.5135 2.17079 16.5078C2.18162 16.5049 2.19264 16.5028 2.20374 16.5015C2.23076 16.4984 2.25831 16.5001 2.28508 16.5069C2.30657 16.5123 2.32697 16.5208 2.34569 16.5319C2.34726 16.5329 2.34882 16.5338 2.35036 16.5348C2.37276 16.5489 2.39262 16.5669 2.40893 16.5881C2.39519 16.57 2.38176 16.5518 2.36864 16.5333C2.36799 16.5324 2.36733 16.5314 2.36668 16.5305C2.29893 16.4346 2.23968 16.3329 2.18965 16.2266C2.12714 16.0934 2.06595 15.9596 2.00611 15.8252M2.56122 16.7079L2.28438 16.6848L2.28216 16.6846L2.25747 16.6826L2.25707 16.6825L2.24116 16.6812L2.2077 16.6784L2.06296 16.6663C2.06594 16.6305 2.06594 16.5946 2.06296 16.5588L2.06233 16.5513L2.06239 16.5513C2.05699 16.4724 2.05009 16.3858 2.04271 16.2955L2.01112 16.891C2.0488 16.9409 2.10235 16.9764 2.16293 16.9917C2.22351 17.007 2.28747 17.001 2.34423 16.9749C2.40302 16.9575 2.45519 16.9226 2.4939 16.875C2.53262 16.8274 2.55608 16.7691 2.56122 16.7079ZM2.00611 15.8252C1.62691 14.9739 1.30145 14.0993 1.0317 13.2067L1.03121 13.2051C0.782191 12.391 0.67356 11.5402 0.709999 10.6895L0.710025 10.6895L0.710193 10.6843C0.735611 9.90304 0.848465 9.12708 1.04663 8.37103C1.28029 7.5608 1.70847 6.82031 2.29368 6.21431M2.00611 15.8252L2.29368 6.21431M2.29368 6.21431C2.72008 5.7778 3.21242 5.41134 3.75258 5.12838L3.75333 5.12799C4.45356 4.75967 5.19961 4.48642 5.97181 4.31544L5.97182 4.3155L5.97915 4.31376C6.89642 4.09611 7.83346 3.97278 8.7757 3.94568C9.57749 3.92695 10.383 3.91956 11.1923 3.91214C11.5305 3.90903 11.8694 3.90593 12.2089 3.90198H12.4211H12.9211V3.40198V3.40149V3.401V3.40051V3.40002V3.39953V3.39904V3.39855V3.39806V3.39757V3.39709V3.3966V3.39611V3.39563V3.39514V3.39466V3.39417V3.39369V3.3932V3.39272V3.39223V3.39175V3.39127V3.39079V3.39031V3.38982V3.38934V3.38886V3.38838V3.3879V3.38742V3.38695V3.38647V3.38599V3.38551V3.38503V3.38456V3.38408V3.38361V3.38313V3.38266V3.38218V3.38171V3.38123V3.38076V3.38029V3.37981V3.37934V3.37887V3.3784V3.37793V3.37746V3.37699V3.37652V3.37605V3.37558V3.37511V3.37464V3.37417V3.3737V3.37324V3.37277V3.3723V3.37184V3.37137V3.37091V3.37044V3.36998V3.36951V3.36905V3.36859V3.36812V3.36766V3.3672V3.36674V3.36627V3.36581V3.36535V3.36489V3.36443V3.36397V3.36351V3.36305V3.3626V3.36214V3.36168V3.36122V3.36076V3.36031V3.35985V3.3594V3.35894V3.35848V3.35803V3.35757V3.35712V3.35667V3.35621V3.35576V3.35531V3.35485V3.3544V3.35395V3.3535V3.35305V3.3526V3.35215V3.3517V3.35125V3.3508V3.35035V3.3499V3.34945V3.349V3.34856V3.34811V3.34766V3.34722V3.34677V3.34632V3.34588V3.34543V3.34499V3.34454V3.3441V3.34365V3.34321V3.34277V3.34233V3.34188V3.34144V3.341V3.34056V3.34012V3.33967V3.33923V3.33879V3.33835V3.33791V3.33747V3.33703V3.3366V3.33616V3.33572V3.33528V3.33484V3.33441V3.33397V3.33353V3.3331V3.33266V3.33223V3.33179V3.33136V3.33092V3.33049V3.33005V3.32962V3.32919V3.32875V3.32832V3.32789V3.32745V3.32702V3.32659V3.32616V3.32573V3.3253V3.32487V3.32444V3.32401V3.32358V3.32315V3.32272V3.32229V3.32186V3.32143V3.321V3.32058V3.32015V3.31972V3.3193V3.31887V3.31844V3.31802V3.31759V3.31717V3.31674V3.31632V3.31589V3.31547V3.31504V3.31462V3.3142V3.31377V3.31335V3.31293V3.31251V3.31208V3.31166V3.31124V3.31082V3.3104V3.30998V3.30956V3.30914V3.30872V3.3083V3.30788V3.30746V3.30704V3.30662V3.3062V3.30578V3.30537V3.30495V3.30453V3.30411V3.3037V3.30328V3.30286V3.30245V3.30203V3.30162V3.3012V3.30079V3.30037V3.29996V3.29954V3.29913V3.29871V3.2983V3.29789V3.29747V3.29706V3.29665V3.29623V3.29582V3.29541V3.295V3.29459V3.29417V3.29376V3.29335V3.29294V3.29253V3.29212V3.29171V3.2913V3.29089V3.29048V3.29007V3.28967V3.28926V3.28885V3.28844V3.28803V3.28762V3.28722V3.28681V3.2864V3.286V3.28559V3.28518V3.28478V3.28437V3.28396V3.28356V3.28315V3.28275V3.28234V3.28194V3.28153V3.28113V3.28072V3.28032V3.27992V3.27951V3.27911V3.27871V3.2783V3.2779V3.2775V3.2771V3.27669V3.27629V3.27589V3.27549V3.27509V3.27469V3.27428V3.27388V3.27348V3.27308V3.27268V3.27228V3.27188V3.27148V3.27108V3.27068V3.27028V3.26989V3.26949V3.26909V3.26869V3.26829V3.26789V3.2675V3.2671V3.2667V3.2663V3.26591V3.26551V3.26511V3.26471V3.26432V3.26392V3.26353V3.26313V3.26273V3.26234V3.26194V3.26155V3.26115V3.26076V3.26036V3.25997V3.25957V3.25918V3.25878V3.25839V3.258V3.2576V3.25721V3.25681V3.25642V3.25603V3.25564V3.25524V3.25485V3.25446V3.25406V3.25367V3.25328V3.25289V3.2525V3.2521V3.25171V3.25132V3.25093V3.25054V3.25015V3.24976V3.24937V3.24898V3.24858V3.24819V3.2478V3.24741V3.24702V3.24663V3.24624V3.24585V3.24547V3.24508V3.24469V3.2443V3.24391V3.24352V3.24313V3.24274V3.24235V3.24197V3.24158V3.24119V3.2408V3.24041V3.24003V3.23964V3.23925V3.23886V3.23848V3.23809V3.2377V3.23731V3.23693V3.23654V3.23615V3.23577V3.23538V3.235V3.23461V3.23422V3.23384V3.23345V3.23306V3.23268V3.23229V3.23191V3.23152V3.23114V3.23075V3.23037V3.22998V3.2296V3.22921V3.22883V3.22844V3.22806V3.22767V3.22729V3.2269V3.22652V3.22614V3.22575V3.22537V3.22498V3.2246V3.22422V3.22383V3.22345V3.22307V3.22268V3.2223V3.22192V3.22153V3.22115V3.22077V3.22038V3.22V3.21962V3.21924V3.21885V3.21847V3.21809V3.21771V3.21732V3.21694V3.21656V3.21618V3.21579V3.21541V3.21503V3.21465V3.21427V3.21388V3.2135V3.21312V3.21274V3.21236V3.21197V3.21159V3.21121V3.21083V3.21045V3.21007V3.20969V3.20931V3.20892V3.20854V3.20816V3.20778V3.2074V3.20702V3.20664V3.20626V3.20588V3.2055V3.20511V3.20473V3.20435V3.20397V3.20359V3.20321V3.20283V3.20245V3.20207V3.20169V3.20131V3.20093V3.20055V3.20017V3.19979V3.19941V3.19903V3.19865V3.19827V3.19789V3.19751V3.19713V3.19675V3.19637V3.19599V3.19561V3.19522V3.19484V3.19446V3.19408V3.1937V3.19332V3.19294V3.19256V3.19218V3.1918V3.19142V3.19104V3.19066V3.19028V3.1899V3.18953V3.18915V3.18877V3.18839V3.18364V3.17889V3.17414V3.16939V3.16464V3.15989V3.15514V3.15039V3.14564V3.14089V3.13614V3.13139V3.12664V3.12189V3.11714V3.11239V3.10764V3.10289V3.09814V3.09339V3.08864V3.08389V3.07914V3.07439V3.06964V3.06489V3.06014V3.05539V3.05064V3.04589V3.04114V3.03639V3.03164V3.02689V3.02214V3.01739V3.01264V3.00789V3.00314V2.99839V2.99363V2.98888V2.98413V2.97938V2.97463V2.96988V2.96513V2.96038V2.95563V2.95088V2.94613V2.94137V2.93662V2.93187V2.92712V2.92237V2.91762V2.91287V2.90811V2.90336V2.89861V2.89386V2.88911V2.88436V2.87961V2.87485V2.8701V2.86535V2.8606V2.85585V2.85109V2.84634V2.84159V2.83684V2.83209V2.82734V2.82258V2.81783V2.81308V2.80833V2.80358V2.79882V2.79407V2.78932V2.78457V2.77981V2.77506V2.77031V2.76556V2.7608V2.75605V2.7513V2.74655V2.7418V2.73704V2.73229V2.72754V2.72278V2.71803V2.71328V2.70853V2.70377V2.69902V2.69427V2.68952V2.68476V2.68001V2.67526V2.6705V2.66575V2.661V2.65625V2.65149V2.64674V2.64199V2.63723V2.63248V2.62773V2.62297V2.61822V2.61347V2.60871V2.60396V2.59921V2.59445V2.5897V2.58495V2.58019V2.57544V2.57069V2.56593V2.56118V2.55643V2.55167V2.54692V2.54217V2.53741V2.53266V2.52791V2.52315V2.5184V2.51365V2.50889V2.50414V2.49938V2.49463V2.48988V2.48512V2.48037V2.47562V2.47086V2.46611V2.46135V2.4566V2.45185V2.44709V2.44234V2.43759V2.43283V2.42808V2.42332V2.41857V2.41382V2.40906V2.40431V2.39955V2.3948V2.39005V2.38529V2.38054V2.37578V2.37103V2.36627V2.36152V2.35677V2.35201V2.34726V2.3425V2.33775V2.333V2.32824V2.32349V2.31873V2.31398V2.30922V2.30447V2.29972V2.29496V2.29021V2.28545V2.2807V2.27594V2.27119V2.26643V2.26168V2.25693V2.25217V2.24742V2.24266V2.23791V2.23315V2.2284V2.22364V2.21889V2.21414V2.20938V2.20463V2.19987V2.19512V2.19036V2.18561V2.18085V2.1761V2.17134V2.16659V2.16183V2.15708V2.15233V2.14757V2.14282V2.13806V2.13331V2.12855V2.1238V2.11904V2.11429V2.10953V2.10478V2.10002V2.09527V2.09051V2.08576V2.08101V2.07625V2.0715V2.06674V2.06199V2.05723V2.05248V2.04772V2.04297V2.03821V2.03346V2.0287V2.02395V2.01919V2.01444V2.00968V2.00493V2.00018V1.99542V1.99067V1.98591V1.98116V1.9764V1.97165V1.96689V1.96214V1.95738V1.95263V1.94787V1.94312V1.93836V1.93361V1.92885V1.9241V1.91934V1.91459V1.90984V1.90508V1.90033V1.89557V1.89082V1.88606V1.88131V1.87655V1.8718V1.86704V1.86229V1.85753V1.85278V1.84802V1.84327V1.83851V1.83376V1.82901V1.82425V1.8195V1.81474V1.80999V1.80523V1.80048V1.79572V1.79097V1.78621V1.78146V1.7767V1.77195V1.76719V1.76244V1.75769V1.75293V1.74818V1.74342V1.73867V1.73391V1.72916V1.7244V1.71965V1.71489V1.71014V1.70539V1.70063V1.69588V1.69112V1.68637V1.68161V1.67686V1.6721V1.66735V1.6626V1.65784V1.65309V1.64833V1.64358V1.63882V1.63407V1.62932V1.62456V1.61981V1.61505V1.6103V1.60554V1.60079V1.59604V1.59128V1.58653V1.58177V1.57702V1.57226V1.56751V1.56276V1.558V1.55325V1.54849V1.54374V1.53899V1.53423V1.52948V1.52472V1.51997V1.51522V1.51046V1.50571V1.50095V1.4962V1.49145V1.48669V1.48194V1.47719V1.47243V1.46768V1.46292V1.45817V1.45342V1.44866V1.44391V1.43916V1.4344V1.42965V1.42489V1.42014V1.41539V1.41063V1.40588V1.40113V1.39637V1.39162V1.38687V1.38211V1.37736V1.37261V1.36785V1.3631V1.35835V1.35359V1.34884V1.34409V1.33933V1.33458V1.32983V1.32507V1.32032V1.31557V1.31081V1.30606V1.30131V1.29655V1.2918V1.28705V1.2823V1.27754V1.27279V1.26804V1.26328V1.25853V1.25378V1.24902V1.24427V1.23952V1.23477V1.23001V1.22526V1.22051V1.21576V1.211V1.20625V1.2015V1.19675V1.19199V1.18724V1.18249V1.17774V1.17298V1.16823V1.16348V1.15873V1.15397V1.14922V1.14447V1.13972V1.13497V1.13021V1.12546V1.12071V1.11596V1.11121V1.10645V1.1017V1.09695V1.0922V1.08745V1.08269V1.07794V1.07319V1.06844V1.06369V1.05894V1.05418V1.04943V1.04468V1.03993V1.03518V1.03043V1.02568V1.02092V1.01617V1.01142V1.00667V1.00192V0.997168V0.992417V0.987666V0.982915V0.978164V0.973413V0.968662V0.963911V0.95916V0.954409V0.949659V0.944908V0.940157V0.935406V0.930656V0.925905V0.921154V0.916404V0.911653V0.906903V0.902152V0.897402V0.892652V0.887901V0.883151V0.878401V0.87365V0.8689V0.86415V0.8594V0.85465V0.8499V0.84515V0.8404V0.83565V0.8309V0.826151V0.821401V0.816651V0.811901V0.807152V0.802402V0.797652V0.792903V0.788154V0.783404V0.778655V0.773905V0.769156V0.764407V0.759658V0.754908V0.738516L12.92 0.722158L2.29368 6.21431Z" stroke="#9596A3"/>
</svg>
